<svg width="88" height="67" viewBox="0 0 88 67" fill="none" xmlns="http://www.w3.org/2000/svg">
<rect x="17.6" y="60.9155" width="52.2133" height="5.57334" fill="white"/>
<path d="M43.7067 11.1467C46.7847 11.1467 49.28 8.6514 49.28 5.57333C49.28 2.49527 46.7847 0 43.7067 0C40.6286 0 38.1333 2.49527 38.1333 5.57333C38.1333 8.6514 40.6286 11.1467 43.7067 11.1467Z" fill="white"/>
<path d="M83.5022 26.2045C85.9863 26.2045 88 24.1908 88 21.7068C88 19.2227 85.9863 17.209 83.5022 17.209C81.0182 17.209 79.0045 19.2227 79.0045 21.7068C79.0045 24.1908 81.0182 26.2045 83.5022 26.2045Z" fill="white"/>
<path d="M4.49778 26.2045C6.98183 26.2045 8.99555 24.1908 8.99555 21.7068C8.99555 19.2227 6.98183 17.209 4.49778 17.209C2.01372 17.209 0 19.2227 0 21.7068C0 24.1908 2.01372 26.2045 4.49778 26.2045Z" fill="white"/>
<path d="M6.6489 27.0845L17.1111 58.569H70.6933L81.3511 27.0845C80.3734 26.6934 79.3956 25.9112 78.8089 24.9334L77.9289 25.5201C67.6622 32.4623 53.68 28.649 48.4978 17.4045L46.3467 12.7112C45.6622 13.0045 44.6845 13.2001 43.9022 13.2001C43.0222 13.2001 42.1422 13.0045 41.4578 12.7112L39.5022 16.7201C34.2222 28.5512 19.6533 32.2667 9.38667 24.8356C8.80001 25.8134 7.82223 26.5956 6.6489 27.0845Z" fill="white"/>
</svg>
