<svg width="144" height="27" viewBox="0 0 144 27" fill="none" xmlns="http://www.w3.org/2000/svg">
<path d="M0.285156 26V0.40625H8.16016C10.4102 0.40625 12.4199 0.916016 14.1895 1.93555C15.9707 2.94336 17.3594 4.38477 18.3555 6.25977C19.3516 8.12305 19.8496 10.2441 19.8496 12.623V13.8008C19.8496 16.1797 19.3574 18.2949 18.373 20.1465C17.4004 21.998 16.0234 23.4336 14.2422 24.4531C12.4609 25.4727 10.4512 25.9883 8.21289 26H0.285156ZM5.55859 4.67773V21.7637H8.10742C10.1699 21.7637 11.7461 21.0898 12.8359 19.7422C13.9258 18.3945 14.4824 16.4668 14.5059 13.959V12.6055C14.5059 10.0039 13.9668 8.03516 12.8887 6.69922C11.8105 5.35156 10.2344 4.67773 8.16016 4.67773H5.55859ZM39.0977 14.9082H28.9727V21.7637H40.8555V26H23.6992V0.40625H40.8203V4.67773H28.9727V10.7773H39.0977V14.9082ZM57.2207 19.2852C57.2207 18.2891 56.8691 17.5273 56.166 17C55.4629 16.4609 54.1973 15.8984 52.3691 15.3125C50.541 14.7148 49.0938 14.1289 48.0273 13.5547C45.1211 11.9844 43.668 9.86914 43.668 7.20898C43.668 5.82617 44.0547 4.5957 44.8281 3.51758C45.6133 2.42773 46.7324 1.57812 48.1855 0.96875C49.6504 0.359375 51.291 0.0546875 53.1074 0.0546875C54.9355 0.0546875 56.5645 0.388672 57.9941 1.05664C59.4238 1.71289 60.5312 2.64453 61.3164 3.85156C62.1133 5.05859 62.5117 6.42969 62.5117 7.96484H57.2383C57.2383 6.79297 56.8691 5.88477 56.1309 5.24023C55.3926 4.58398 54.3555 4.25586 53.0195 4.25586C51.7305 4.25586 50.7285 4.53125 50.0137 5.08203C49.2988 5.62109 48.9414 6.33594 48.9414 7.22656C48.9414 8.05859 49.3574 8.75586 50.1895 9.31836C51.0332 9.88086 52.2695 10.4082 53.8984 10.9004C56.8984 11.8027 59.084 12.9219 60.4551 14.2578C61.8262 15.5938 62.5117 17.2578 62.5117 19.25C62.5117 21.4648 61.6738 23.2051 59.998 24.4707C58.3223 25.7246 56.0664 26.3516 53.2305 26.3516C51.2617 26.3516 49.4688 25.9941 47.8516 25.2793C46.2344 24.5527 44.998 23.5625 44.1426 22.3086C43.2988 21.0547 42.877 19.6016 42.877 17.9492H48.168C48.168 20.7734 49.8555 22.1855 53.2305 22.1855C54.4844 22.1855 55.4629 21.9336 56.166 21.4297C56.8691 20.9141 57.2207 20.1992 57.2207 19.2852ZM71.7051 26H66.4316V0.40625H71.7051V26ZM96.8594 22.7656C95.9102 23.9023 94.5684 24.7871 92.834 25.4199C91.0996 26.041 89.1777 26.3516 87.0684 26.3516C84.8535 26.3516 82.9082 25.8711 81.2324 24.9102C79.5684 23.9375 78.2793 22.5312 77.3652 20.6914C76.4629 18.8516 76 16.6895 75.9766 14.2051V12.4648C75.9766 9.91016 76.4043 7.70117 77.2598 5.83789C78.127 3.96289 79.3691 2.5332 80.9863 1.54883C82.6152 0.552734 84.5195 0.0546875 86.6992 0.0546875C89.7344 0.0546875 92.1074 0.78125 93.8184 2.23438C95.5293 3.67578 96.543 5.7793 96.8594 8.54492H91.7266C91.4922 7.08008 90.9707 6.00781 90.1621 5.32812C89.3652 4.64844 88.2637 4.30859 86.8574 4.30859C85.0645 4.30859 83.6992 4.98242 82.7617 6.33008C81.8242 7.67773 81.3496 9.68164 81.3379 12.3418V13.9766C81.3379 16.6602 81.8477 18.6875 82.8672 20.0586C83.8867 21.4297 85.3809 22.1152 87.3496 22.1152C89.3301 22.1152 90.7422 21.6934 91.5859 20.8496V16.4375H86.7871V12.5527H96.8594V22.7656ZM121.961 26H116.688L106.422 9.16016V26H101.148V0.40625H106.422L116.705 17.2812V0.40625H121.961V26Z" fill="white"/>
<path d="M129.695 19.8984C129.695 17.9219 130.354 16.3177 131.672 15.0859C133.018 13.8542 134.694 13.2383 136.699 13.2383C138.733 13.2383 140.409 13.8542 141.727 15.0859C143.073 16.3177 143.746 17.9219 143.746 19.8984C143.746 21.8464 143.087 23.4362 141.77 24.668C140.452 25.8711 138.762 26.4727 136.699 26.4727C134.665 26.4727 132.99 25.8711 131.672 24.668C130.354 23.4362 129.695 21.8464 129.695 19.8984Z" fill="#FF3D00"/>
</svg>
