<svg width="80" height="80" viewBox="0 0 80 80" fill="none" xmlns="http://www.w3.org/2000/svg">
<path fill-rule="evenodd" clip-rule="evenodd" d="M40 0C17.8667 0 0 17.8667 0 40C0 62.1333 17.8667 80 40 80C62.1333 80 80 62.1333 80 40C80 17.8667 62.1333 0 40 0ZM43.8222 56.0889C43.8222 57.3333 43.4667 58.3111 42.7556 59.0222C42.0444 59.7333 41.0667 60.1778 39.9111 60.1778C38.7556 60.1778 37.7778 59.8222 37.0667 59.0222C36.3556 58.3111 36 57.2444 36 56.0889V35.7333C36 34.4889 36.3556 33.5111 37.0667 32.7111C37.7778 32 38.7556 31.5556 39.9111 31.5556C41.0667 31.5556 42.0444 31.9111 42.7556 32.7111C43.4667 33.4222 43.8222 34.4889 43.8222 35.7333V56.0889ZM38.2222 27.0222C38.7556 27.2889 39.2889 27.3778 39.9111 27.3778C41.1556 27.3778 42.1333 26.9333 43.0222 26.1333C43.9111 25.3333 44.2667 24.2667 44.3556 23.1111C44.3556 22.5778 44.2667 22.0444 44 21.6C43.7333 21.1556 43.4667 20.7111 43.0222 20.3556C42.5778 20 42.1333 19.7333 41.6 19.4667C41.0667 19.2 40.5333 19.1111 39.9111 19.1111C39.2889 19.1111 38.7556 19.2889 38.2222 19.4667C37.6889 19.6444 37.2445 20 36.8 20.3555L36.8 20.3556C36.3556 20.8 36.0889 21.1556 35.8222 21.6889C35.5556 22.2222 35.4667 22.6667 35.4667 23.2C35.4667 23.7333 35.5556 24.2667 35.8222 24.8C36.0889 25.3333 36.3556 25.7778 36.8 26.1333C37.2444 26.4889 37.6889 26.7556 38.2222 27.0222Z" fill="white"/>
</svg>
