<svg width="88" height="55" viewBox="0 0 88 55" fill="none" xmlns="http://www.w3.org/2000/svg">
<path fill-rule="evenodd" clip-rule="evenodd" d="M82.3289 54.0711H5.67111C2.54222 54.0711 0 51.5289 0 48.4V6.25778C0 3.12889 2.54222 0.58667 5.67111 0.58667H82.3289C85.4578 0.58667 88 3.12889 88 6.25778V48.4C88 51.5289 85.4578 54.0711 82.3289 54.0711ZM67.3689 13.1022C66.6844 12.4178 65.7067 12.4178 65.0222 13.1022C64.3378 13.7867 64.3378 14.8622 65.0222 15.5467C71.5733 22 71.5733 32.6578 65.0222 39.2089C64.7289 39.5022 64.5333 39.9911 64.5333 40.3822C64.5333 40.7733 64.7289 41.2622 65.0222 41.5556C65.7067 42.24 66.6844 42.24 67.3689 41.5556C75.1911 33.7333 75.1911 20.9244 67.3689 13.1022ZM60.1333 20.4356C59.4489 19.7511 59.4489 18.7733 60.1333 18.0889C60.8178 17.4044 61.7956 17.4044 62.48 18.0889C67.6622 23.2711 67.6622 31.68 62.48 36.7645C61.7956 37.4489 60.8178 37.4489 60.1333 36.7645C59.84 36.4711 59.6444 35.9822 59.6444 35.5911C59.6444 35.2 59.84 34.7111 60.1333 34.4178C63.9467 30.5067 63.9467 24.2489 60.1333 20.4356ZM55.2444 22.9778C54.56 23.6622 54.56 24.64 55.2444 25.3244C56.4178 26.4978 56.4178 28.3556 55.2444 29.5289C54.9511 29.8222 54.7556 30.3111 54.7556 30.7022C54.7556 31.0933 54.9511 31.5822 55.2444 31.8756C55.9289 32.56 56.9067 32.56 57.5911 31.8756C60.0356 29.4311 60.0356 25.4222 57.5911 22.9778C56.9067 22.2933 55.9289 22.2933 55.2444 22.9778Z" fill="white"/>
</svg>
